# xmcd
#
# Track frame offsets:
#	150
#	14235
#	29883
#	46175
#	62140
#	78715
#	95061
#	108686
#	123617
#	139159
#
# Disc length: 2062 seconds
#
# Revision: 1
# Processed by: cddbd v1.5.2PL0 Copyright (c) Steve Scherf et al.
# Submitted via: EasyCDDAExtractor 2010.6.0.0
#
DISCID=9c080c0a
DTITLE=Various Artist - Η ιστορία του ρεμπέτικου τραγουδιού No 07 CD3
DYEAR=2007
DGENRE=Ρεμπέτικα
TTITLE0=Πρόδρομος Τσαουσάκης and Ιωάννα Γεωργακοπούλου and Βασίλης Τσιτσάνης - Για
TTITLE0=τί με ξύπνησες πρωί
TTITLE1=Μαρίκα Νίνου and Σ.Τζουανάκος and Σ.Ευσταθίου and Βασίλης Τσιτσάνης - Αντιλα
TTITLE1=λούνε τα βουνά
TTITLE2=Σωτηρία Μπέλλου - Βαριά μεσάνυχτα
TTITLE3=Τάκης Μπίνης and Σωτηρία Μπέλλου and Βασίλης Τσιτσάνης and Γιάννης Τατασόπου
TTITLE3=λος - Τα καβουράκια
TTITLE4=Στέλλα Χασκίλ and Βασίλης Τσιτσάνης and Α.Γιαννόπουλος - Της φτώχειας τα κ
TTITLE4=ουρέλια
TTITLE5=Άννα Χρυσάφη and Α.Γιαννόπουλος and Σ.Πλέσσας - Χόρεψε το τσιφτετέλι
TTITLE6=Στράτος Παγιουμτζής - Η μποέμισσα
TTITLE7=Στέλλα Χασκίλ  and Γιάννης Τατασόπουλος - Ποτέ χαΐρι να μη δεις
TTITLE8=Δημήτρης Ρουμελιώτης - Ο Δημητράκης (Έδιωξες το Δημητράκη)
TTITLE9=Τάκης Μπίνης and Ν.Χάρμα - Παπατζήδες
EXTD=
EXTT0=Η πρώτη, αυθεντική εκτέλεση του τραγουδιού. Το 1962 ο Γρηγόρης Μπιθικώτσ
EXTT0=ης με την Πόλυ Πάνου το ηχογράφησαν ξανά.
EXTT1=Ανεπανάληπτη κλασική επιτυχία που βγήκε σε δίσκο HMV. Παράλληλη εκτέλεση
EXTT1=στην Odeon με τη Στέλλα Χασκίλ.
EXTT2=Ο Τάκης Λαβίδας, πατέρας της μεγάλης τραγουδίστριας Ελένης Βιτάλη, εκτός
EXTT2=από δεξιοτέχνης τσιμπαλίστας, υπέγραφε μεγάλες λαϊκές επιτυχίες.
EXTT3=Ο Στέλιος Καζαντζίδης, η Λύδια και η Μαρινέλλα τραγούδησαν ξανά το '59 τ
EXTT3=α «Καβουράκια», υπό την διεύθυνση του Τσιτσάνη.
EXTT4=Είχε ακουστεί σε μια παλιά ελληνική ταινία με τη Νίνου. Υπάρχει νεότερη 
EXTT4=εκτέλεση με την Πόλυ Πάνου και τον συνθέτη.
EXTT5=Θρυλικό τραγούδι του Τατασόπουλου σε στίχους Κολοκοτρώνη. Υπάρχει παράλλ
EXTT5=ηλη εκτέλεση με τον Τσαουσάκη και την Άννα Μπέλλα.
EXTT6=Ένα εξαιρετικό χασάπικο του Τσιτσάνη. Ο Στράτος υπήρξε ιδανικός ερμηνευτ
EXTT6=ής των τραγουδιών του συνθέτη, ιδίως στην προπολεμική του περίοδο.
EXTT7=Η Στέλλα Χασκίλ είχε γεννηθεί στη Σαλονίκη, και ερμήνευσε πολλά τραγούδι
EXTT7=α του Μπακάλη σε πρώτη εκτέλεση. Πέθανε νεότατη.
EXTT8=Πολύ αγαπημένο και αξέχαστο ζεϊμπέκικο του Μητσάκη. Μεγάλη επιτυχία για 
EXTT8=τον Δημήτρη Ρουμελιώτη, που ήταν κουμπάρος του συνθέτη.
EXTT9=Οι παπατζήδες είναι ένα «φρούτο» που άνθησε και ανθεί στους δρόμους πέρι
EXTT9=ξ της οδού Αθηνάς. Ο Χάρμας εύστοχα σχολιάζει και νουθετεί.
PLAYORDER=
